PathFileType	4	(X/Y/Z)	D:\TRACE\v60_Jaco2_6-2-23\BothDRS_Motion1_1-platform.trc
DataRate	CameraRate	NumFrames	NumMarkers	Units	OrigDataRate	OrigDataStartFrame	OrigNumFrames
100.00	100.00	      66	5	mm	100.00	4286	      6857
Frame#	Time	Left_Front			Right_Front			Left_Aft			Right_Aft			Post			
		X1	Y1	Z1	X2	Y2	Z2	X3	Y3	Z3	X4	Y4	Z4	X5	Y5	Z5	

4286	42.850	-848.49597	9.56066	-638.77057	721.58167	10.38353	-643.39142	-756.36487	7.27654	496.68338	685.42957	6.27686	505.88226	-61.63311	1308.65784	-960.35413	
4287	42.860	-848.18512	9.15088	-638.82416	721.95660	10.04177	-643.63513	-755.93793	7.51338	496.62918	685.93250	6.62986	505.83130	-61.79725	1308.11877	-961.88696	
4288	42.870	-847.64868	8.61222	-638.72931	722.33673	9.65884	-643.77875	-755.63354	7.96020	496.64169	686.48596	6.97643	505.80231	-61.23106	1307.59009	-962.82025	
4289	42.880	-847.39844	8.02517	-638.58179	722.95917	9.11601	-643.76483	-755.18884	8.35816	496.59836	687.03790	7.28423	505.78235	-61.03879	1306.90955	-963.80194	
4290	42.890	-846.97339	7.26224	-638.59149	723.20612	8.60558	-643.91302	-754.81183	8.59936	496.49387	687.24304	7.52928	505.49991	-60.43528	1306.01001	-964.88293	
4291	42.900	-846.73621	6.91886	-638.57800	723.60767	8.11861	-643.99908	-754.45404	8.81554	496.32675	687.66663	7.89636	505.26944	-59.70242	1305.29932	-965.57507	
4292	42.910	-846.27100	6.45816	-638.90112	724.09955	7.62117	-644.02698	-754.06879	9.17389	496.17780	687.99298	8.30725	505.15344	-59.54115	1304.84009	-966.06085	
4293	42.920	-845.55212	6.04119	-639.41211	724.39240	7.31512	-644.28229	-753.67737	9.66069	495.98965	688.24628	8.61932	505.09842	-59.15508	1304.08923	-967.08478	
4294	42.930	-845.24866	5.62646	-639.42706	724.88354	6.86511	-644.46021	-753.21674	10.08642	495.82648	688.92749	9.17267	505.05383	-59.19923	1303.10535	-967.92865	
4295	42.940	-844.91980	5.27150	-639.56696	725.55994	6.23958	-644.45184	-752.86005	10.38300	495.81100	689.50623	9.61956	504.99115	-58.31974	1302.64307	-969.09497	
4296	42.950	-844.43689	4.93298	-639.61194	725.92700	5.98415	-644.56738	-752.30695	10.85570	495.76666	689.94635	9.84322	504.77435	-57.79175	1301.77173	-970.53735	
4297	42.960	-843.98029	4.58945	-639.74109	726.33978	5.42181	-644.77167	-751.94647	11.24657	495.67355	690.39752	10.07044	504.65851	-57.20362	1300.83459	-971.37714	
4298	42.970	-843.30609	4.23995	-639.73828	726.77759	4.85620	-645.02258	-751.69202	11.57962	495.55209	690.73035	10.35513	504.49710	-57.12856	1300.30786	-972.99469	
4299	42.980	-842.73340	3.51848	-639.81439	727.20215	4.20616	-645.13055	-751.26697	12.23539	495.44583	691.39728	10.86374	504.44885	-56.85376	1299.74304	-974.16638	
4300	42.990	-842.12036	2.63552	-640.13531	727.90094	3.37777	-645.10785	-750.81970	12.62874	495.33395	692.05640	11.35631	504.46631	-56.22822	1298.58398	-975.44617	
4301	43.000	-841.68793	2.13018	-640.40771	728.43079	3.19451	-645.14032	-750.56732	13.32441	495.08954	693.95184	12.79036	506.14371	-55.31082	1297.77966	-976.56238	
4302	43.010	-841.18579	1.62741	-640.54871	729.16663	2.61792	-645.26166	-748.81018	12.30703	495.18326	694.56659	13.19252	505.74533	-54.85063	1296.92676	-977.49298	
4303	43.020	-840.77661	1.57465	-640.59656	729.58881	2.16352	-645.49536	-748.23065	12.80353	494.62939	694.86523	13.36883	505.67725	-54.44479	1296.24231	-978.92786	
4304	43.030	-839.99921	1.25506	-640.74329	730.07178	1.75471	-645.69861	-747.85229	13.09944	494.62885	695.48059	13.67774	505.40530	-53.82002	1295.65076	-980.21484	
4305	43.040	-839.33167	0.55804	-640.72504	730.70679	1.35895	-645.69733	-747.23755	13.55899	494.44513	695.77893	13.93780	505.39966	-53.34563	1295.05249	-981.28394	
4306	43.050	-838.62677	-0.37012	-640.42285	731.09399	0.89819	-645.89789	-746.55347	13.87356	494.32751	696.07214	14.09857	505.23788	-52.56148	1294.32947	-982.44952	
4307	43.060	-838.49170	-0.72961	-641.20331	731.87372	0.13084	-646.04755	-746.02643	14.00482	494.20627	696.84308	14.38218	504.77359	-51.83121	1293.57983	-983.13678	
4308	43.070	-837.84045	-0.80741	-640.76831	732.56274	-0.14750	-646.16925	-745.54498	14.29554	494.07800	697.59589	14.68939	504.73654	-51.47663	1293.15393	-983.89355	
4309	43.080	-837.03607	-1.15408	-641.06488	733.14130	-0.30997	-646.17316	-744.92841	14.66748	494.06952	698.36713	15.16524	504.94434	-50.65236	1292.40125	-984.81555	
4310	43.090	-836.21722	-1.79708	-641.19360	733.69958	-0.73115	-646.24390	-744.25616	15.07424	494.01526	698.95349	15.40568	504.67874	-50.01112	1291.84680	-985.59674	
4311	43.100	-835.71826	-2.10790	-641.32562	734.34808	-1.25336	-646.39691	-743.66687	15.41220	493.91718	699.46973	15.64803	504.50998	-49.77145	1291.30322	-985.77521	
4312	43.110	-834.95514	-2.62481	-641.49139	735.13538	-1.54408	-646.51898	-743.08685	15.85416	493.72659	700.39008	16.00045	504.44775	-48.81462	1290.56763	-986.50140	
4313	43.120	-834.46088	-2.92692	-641.55841	735.80060	-1.94926	-646.59772	-742.46637	16.11279	493.66135	701.04059	16.42172	504.49988	-48.06780	1289.87537	-987.07111	
4314	43.130	-833.49237	-3.56177	-641.86957	736.51184	-2.55774	-646.69958	-741.78925	16.33412	493.35190	701.72839	16.69258	504.27927	-47.53728	1289.10938	-988.26599	
4315	43.140	-832.83203	-4.01067	-641.94299	737.12762	-2.92592	-646.69543	-740.88031	16.83260	493.30865	702.45184	17.03074	504.14404	-46.95627	1288.52209	-988.99255	
4316	43.150	-832.35901	-4.60717	-641.90125	737.91376	-3.42232	-646.75061	-740.36279	17.08280	493.19516	703.60022	17.63817	504.11166	-46.57611	1287.60168	-990.65466	
4317	43.160	-831.79498	-5.09850	-641.85297	738.52167	-3.97931	-646.96252	-739.69250	17.41763	493.04065	703.90356	17.71696	503.93488	-45.20928	1286.93372	-992.10870	
4318	43.170	-830.85730	-5.62598	-641.94238	739.46039	-4.61415	-646.98846	-738.81281	17.66459	492.96750	704.75970	18.00054	503.85696	-44.70768	1286.48645	-993.58832	
4319	43.180	-829.91699	-6.09397	-642.16699	740.09387	-4.84093	-647.25226	-738.14111	17.86426	492.86786	705.73279	18.39643	503.66089	-43.97402	1285.62244	-994.53967	
4320	43.190	-829.36328	-6.29680	-642.20862	740.76166	-5.26865	-647.48096	-737.58014	18.13666	492.66382	706.54169	18.98183	503.81091	-42.85765	1284.97302	-995.82959	
4321	43.200	-828.63293	-6.59637	-642.34210	741.53082	-5.73889	-647.42389	-736.64911	18.47637	492.52536	705.29797	17.85902	501.79047	-42.20897	1284.38684	-997.32208	
4322	43.210	-828.01648	-6.93807	-642.43066	742.34052	-6.04218	-647.35748	-735.86121	18.73017	492.42801	706.34998	18.37237	501.72055	-41.75792	1283.94116	-997.90454	
4323	43.220	-826.81006	-7.59212	-642.62048	742.91144	-6.39446	-647.71545	-735.13464	19.03082	492.53964	707.24286	18.65644	501.71033	-40.56633	1283.35828	-998.65393	
4324	43.230	-826.22125	-7.95136	-642.50336	743.95239	-6.89230	-647.82544	-734.29919	19.22830	492.42017	707.47070	18.80122	501.58600	-39.88811	1282.65991	-998.95691	
4325	43.240	-825.57233	-8.19624	-642.73468	744.66864	-7.14618	-647.74817	-733.48694	19.45139	492.08871	708.69568	19.22766	501.44272	-39.20890	1282.10681	-999.46924	
4326	43.250	-824.74823	-8.70386	-642.82721	745.51367	-7.65257	-647.74658	-732.60010	19.71171	492.07001	709.70367	19.49261	501.34738	-38.59535	1281.61768	-999.81091	
4327	43.260	-823.74854	-9.30234	-642.84045	746.22986	-7.93700	-648.03888	-731.95526	19.96336	491.93912	710.31146	19.73274	501.24692	-37.78854	1280.99951	-1000.20123	
4328	43.270	-822.89917	-9.79943	-642.71051	747.10651	-8.33370	-647.97864	-731.00531	20.33595	491.85413	711.05963	20.03621	501.09790	-36.90622	1280.40112	-1000.88818	
4329	43.280	-822.12006	-9.95973	-642.71759	748.02069	-8.77995	-648.11328	-730.26196	20.64006	491.85208	712.05017	20.37359	500.94815	-36.42356	1279.84607	-1001.52423	
4330	43.290	-821.28723	-10.29665	-643.12860	748.89655	-9.10717	-648.22058	-729.31543	20.77789	491.68079	712.67810	20.60623	500.76535	-35.27866	1279.01843	-1002.53265	
4331	43.300	-820.34418	-10.57681	-643.30115	749.53345	-9.31147	-648.36115	-728.59460	21.08435	491.61032	713.39478	20.84917	500.77103	-34.48708	1278.37695	-1003.20746	
4332	43.310	-819.40356	-11.02575	-643.24805	750.60168	-9.76223	-648.28265	-727.57159	21.28286	491.49988	714.78723	21.25882	500.66977	-33.79319	1278.01074	-1004.73853	
4333	43.320	-818.67657	-11.35599	-643.23199	751.53680	-10.01417	-648.43445	-726.69159	21.19093	491.48825	715.27411	21.29466	500.51837	-32.87391	1277.62561	-1006.10272	
4334	43.330	-817.85443	-11.62462	-643.50208	752.33459	-10.43975	-648.57532	-725.46149	21.57560	491.58582	716.29553	21.53993	500.56573	-31.49461	1277.07239	-1007.02911	
4335	43.340	-816.87537	-12.00601	-643.75964	753.23517	-10.77831	-648.40808	-725.07123	21.97183	491.19705	717.27911	21.92393	500.44586	-31.08711	1276.38245	-1008.15393	
4336	43.350	-816.12549	-12.39320	-643.46863	754.05005	-11.04596	-648.62012	-723.96918	21.96746	491.48087	718.03363	22.05966	500.37244	-29.80152	1275.81946	-1009.21332	
4337	43.360	-815.12726	-12.77214	-643.44397	754.98981	-11.40241	-648.82257	-723.05627	22.21301	491.31842	719.17554	22.47883	500.40024	-29.13265	1275.32556	-1009.78851	
4338	43.370	-814.10645	-12.86895	-643.56256	755.86847	-11.65507	-648.82977	-722.21558	22.30064	491.06558	719.80585	22.50291	500.17810	-28.12944	1274.69531	-1010.67517	
4339	43.380	-813.47906	-13.60687	-643.86530	756.56702	-11.84706	-648.73975	-721.44464	22.78845	490.73776	720.62354	22.52977	499.93137	-27.41305	1274.33252	-1010.97430	
4340	43.390	-812.02795	-15.26797	-643.78699	757.92200	-12.70091	-648.90820	-720.25946	23.05722	490.72183	721.93573	23.01510	499.99072	-26.10210	1273.89880	-1011.60138	
4341	43.400	-811.07733	-15.33371	-643.58551	758.88422	-12.79633	-648.87543	-719.59924	23.13828	490.90924	722.46991	23.23429	499.81390	-25.70077	1273.33838	-1011.67200	
4342	43.410	-810.10596	-15.28144	-644.20386	759.36798	-12.76846	-649.16632	-718.42267	23.29910	490.82309	723.44104	23.51022	499.67801	-24.96641	1272.91931	-1011.77502	
4343	43.420	-809.26367	-15.30758	-644.27710	760.48175	-12.98212	-649.19928	-717.44116	23.44075	490.72290	724.69769	23.71809	499.64594	-23.45090	1272.43372	-1012.19409	
4344	43.430	-808.24762	-15.88167	-644.12524	761.45428	-13.44439	-649.38037	-716.64410	23.66792	490.47028	725.16998	23.85251	499.49863	-22.94748	1272.10156	-1012.57794	
4345	43.440	-807.29150	-16.23257	-644.30560	762.33978	-13.71689	-649.31555	-715.93945	24.25224	490.11935	726.37726	24.06879	499.49280	-22.21016	1271.63818	-1013.09686	
4346	43.450	-806.50714	-16.42100	-644.28992	763.27600	-13.96938	-649.50879	-714.79388	24.27441	490.24234	727.41876	24.25250	499.43207	-20.83964	1271.21460	-1013.52283	
4347	43.460	-805.68140	-16.50018	-644.58386	764.28790	-14.19359	-649.61066	-713.99573	24.35512	490.24481	728.06116	24.31878	499.42328	-19.74362	1270.88025	-1014.57495	
4348	43.470	-804.51459	-16.44160	-644.55597	765.21344	-14.44630	-649.53839	-712.92297	24.46808	490.18738	729.43573	24.75789	499.25146	-19.11209	1270.41919	-1015.36572	
4349	43.480	-803.47626	-16.76680	-644.56775	766.06232	-14.66928	-649.60803	-712.04376	24.70476	490.14539	730.15424	24.69812	499.20987	-17.99934	1270.21948	-1016.22272	
4350	43.490	-802.60577	-17.08316	-644.61261	767.25537	-14.80712	-649.68231	-711.01727	24.88841	489.89749	731.16681	24.84825	499.25742	-17.16096	1269.83044	-1016.83508	
4351	43.500	-802.04968	-17.20743	-644.63751	767.96692	-15.04862	-649.71771	-710.11017	24.85728	489.81342	732.11243	25.11772	499.18857	-16.34600	1269.62744	-1017.63470	
